<svg width="639" height="336" viewBox="0 0 639 336" fill="none" xmlns="http://www.w3.org/2000/svg">
<rect width="639" height="336" rx="10" fill="#292B31"/>
<path d="M28.374 309.258V310H23.7207V309.351L26.0498 306.758C26.3363 306.439 26.5576 306.169 26.7139 305.947C26.8734 305.723 26.984 305.522 27.0459 305.347C27.111 305.168 27.1436 304.985 27.1436 304.8C27.1436 304.565 27.0947 304.354 26.9971 304.165C26.9027 303.973 26.7627 303.82 26.5771 303.706C26.3916 303.592 26.167 303.535 25.9033 303.535C25.5876 303.535 25.3239 303.597 25.1123 303.721C24.904 303.841 24.7477 304.01 24.6436 304.229C24.5394 304.447 24.4873 304.697 24.4873 304.98H23.584C23.584 304.58 23.6719 304.214 23.8477 303.882C24.0234 303.55 24.2839 303.286 24.6289 303.091C24.974 302.892 25.3988 302.793 25.9033 302.793C26.3525 302.793 26.7367 302.873 27.0557 303.032C27.3747 303.188 27.6188 303.41 27.7881 303.696C27.9606 303.979 28.0469 304.312 28.0469 304.692C28.0469 304.901 28.0111 305.112 27.9395 305.327C27.8711 305.539 27.7751 305.75 27.6514 305.962C27.5309 306.174 27.3893 306.382 27.2266 306.587C27.0671 306.792 26.8962 306.994 26.7139 307.192L24.8096 309.258H28.374ZM33.8037 305.879V306.963C33.8037 307.546 33.7516 308.037 33.6475 308.438C33.5433 308.838 33.3936 309.16 33.1982 309.404C33.0029 309.648 32.7669 309.826 32.4902 309.937C32.2168 310.044 31.9076 310.098 31.5625 310.098C31.2891 310.098 31.0368 310.063 30.8057 309.995C30.5745 309.927 30.3662 309.818 30.1807 309.668C29.9984 309.515 29.8421 309.316 29.7119 309.072C29.5817 308.828 29.4824 308.532 29.4141 308.184C29.3457 307.835 29.3115 307.428 29.3115 306.963V305.879C29.3115 305.296 29.3636 304.808 29.4678 304.414C29.5752 304.02 29.7266 303.704 29.9219 303.467C30.1172 303.226 30.3516 303.053 30.625 302.949C30.9017 302.845 31.2109 302.793 31.5527 302.793C31.8294 302.793 32.0833 302.827 32.3145 302.896C32.5488 302.961 32.7572 303.066 32.9395 303.213C33.1217 303.356 33.2764 303.548 33.4033 303.789C33.5335 304.027 33.6328 304.318 33.7012 304.663C33.7695 305.008 33.8037 305.413 33.8037 305.879ZM32.8955 307.109V305.728C32.8955 305.409 32.876 305.129 32.8369 304.888C32.8011 304.644 32.7474 304.435 32.6758 304.263C32.6042 304.09 32.513 303.95 32.4023 303.843C32.2949 303.735 32.1696 303.657 32.0264 303.608C31.8864 303.556 31.7285 303.53 31.5527 303.53C31.3379 303.53 31.1475 303.571 30.9814 303.652C30.8154 303.73 30.6755 303.856 30.5615 304.028C30.4508 304.201 30.3662 304.427 30.3076 304.707C30.249 304.987 30.2197 305.327 30.2197 305.728V307.109C30.2197 307.428 30.2376 307.71 30.2734 307.954C30.3125 308.198 30.3695 308.41 30.4443 308.589C30.5192 308.765 30.6104 308.91 30.7178 309.023C30.8252 309.137 30.9489 309.222 31.0889 309.277C31.2321 309.329 31.39 309.355 31.5625 309.355C31.7839 309.355 31.9775 309.313 32.1436 309.229C32.3096 309.144 32.4479 309.012 32.5586 308.833C32.6725 308.651 32.7572 308.418 32.8125 308.135C32.8678 307.848 32.8955 307.507 32.8955 307.109ZM39.4287 305.879V306.963C39.4287 307.546 39.3766 308.037 39.2725 308.438C39.1683 308.838 39.0186 309.16 38.8232 309.404C38.6279 309.648 38.3919 309.826 38.1152 309.937C37.8418 310.044 37.5326 310.098 37.1875 310.098C36.9141 310.098 36.6618 310.063 36.4307 309.995C36.1995 309.927 35.9912 309.818 35.8057 309.668C35.6234 309.515 35.4671 309.316 35.3369 309.072C35.2067 308.828 35.1074 308.532 35.0391 308.184C34.9707 307.835 34.9365 307.428 34.9365 306.963V305.879C34.9365 305.296 34.9886 304.808 35.0928 304.414C35.2002 304.02 35.3516 303.704 35.5469 303.467C35.7422 303.226 35.9766 303.053 36.25 302.949C36.5267 302.845 36.8359 302.793 37.1777 302.793C37.4544 302.793 37.7083 302.827 37.9395 302.896C38.1738 302.961 38.3822 303.066 38.5645 303.213C38.7467 303.356 38.9014 303.548 39.0283 303.789C39.1585 304.027 39.2578 304.318 39.3262 304.663C39.3945 305.008 39.4287 305.413 39.4287 305.879ZM38.5205 307.109V305.728C38.5205 305.409 38.501 305.129 38.4619 304.888C38.4261 304.644 38.3724 304.435 38.3008 304.263C38.2292 304.09 38.138 303.95 38.0273 303.843C37.9199 303.735 37.7946 303.657 37.6514 303.608C37.5114 303.556 37.3535 303.53 37.1777 303.53C36.9629 303.53 36.7725 303.571 36.6064 303.652C36.4404 303.73 36.3005 303.856 36.1865 304.028C36.0758 304.201 35.9912 304.427 35.9326 304.707C35.874 304.987 35.8447 305.327 35.8447 305.728V307.109C35.8447 307.428 35.8626 307.71 35.8984 307.954C35.9375 308.198 35.9945 308.41 36.0693 308.589C36.1442 308.765 36.2354 308.91 36.3428 309.023C36.4502 309.137 36.5739 309.222 36.7139 309.277C36.8571 309.329 37.015 309.355 37.1875 309.355C37.4089 309.355 37.6025 309.313 37.7686 309.229C37.9346 309.144 38.0729 309.012 38.1836 308.833C38.2975 308.651 38.3822 308.418 38.4375 308.135C38.4928 307.848 38.5205 307.507 38.5205 307.109Z" fill="#A3A3A3"/>
<path d="M28.5205 238.607V239.35H23.3838V238.817L26.5674 233.891H27.3047L26.5137 235.316L24.4092 238.607H28.5205ZM27.5293 233.891V241H26.626V233.891H27.5293ZM33.8037 236.879V237.963C33.8037 238.546 33.7516 239.037 33.6475 239.438C33.5433 239.838 33.3936 240.16 33.1982 240.404C33.0029 240.648 32.7669 240.826 32.4902 240.937C32.2168 241.044 31.9076 241.098 31.5625 241.098C31.2891 241.098 31.0368 241.063 30.8057 240.995C30.5745 240.927 30.3662 240.818 30.1807 240.668C29.9984 240.515 29.8421 240.316 29.7119 240.072C29.5817 239.828 29.4824 239.532 29.4141 239.184C29.3457 238.835 29.3115 238.428 29.3115 237.963V236.879C29.3115 236.296 29.3636 235.808 29.4678 235.414C29.5752 235.02 29.7266 234.704 29.9219 234.467C30.1172 234.226 30.3516 234.053 30.625 233.949C30.9017 233.845 31.2109 233.793 31.5527 233.793C31.8294 233.793 32.0833 233.827 32.3145 233.896C32.5488 233.961 32.7572 234.066 32.9395 234.213C33.1217 234.356 33.2764 234.548 33.4033 234.789C33.5335 235.027 33.6328 235.318 33.7012 235.663C33.7695 236.008 33.8037 236.413 33.8037 236.879ZM32.8955 238.109V236.728C32.8955 236.409 32.876 236.129 32.8369 235.888C32.8011 235.644 32.7474 235.435 32.6758 235.263C32.6042 235.09 32.513 234.95 32.4023 234.843C32.2949 234.735 32.1696 234.657 32.0264 234.608C31.8864 234.556 31.7285 234.53 31.5527 234.53C31.3379 234.53 31.1475 234.571 30.9814 234.652C30.8154 234.73 30.6755 234.856 30.5615 235.028C30.4508 235.201 30.3662 235.427 30.3076 235.707C30.249 235.987 30.2197 236.327 30.2197 236.728V238.109C30.2197 238.428 30.2376 238.71 30.2734 238.954C30.3125 239.198 30.3695 239.41 30.4443 239.589C30.5192 239.765 30.6104 239.91 30.7178 240.023C30.8252 240.137 30.9489 240.222 31.0889 240.277C31.2321 240.329 31.39 240.355 31.5625 240.355C31.7839 240.355 31.9775 240.313 32.1436 240.229C32.3096 240.144 32.4479 240.012 32.5586 239.833C32.6725 239.651 32.7572 239.418 32.8125 239.135C32.8678 238.848 32.8955 238.507 32.8955 238.109ZM39.4287 236.879V237.963C39.4287 238.546 39.3766 239.037 39.2725 239.438C39.1683 239.838 39.0186 240.16 38.8232 240.404C38.6279 240.648 38.3919 240.826 38.1152 240.937C37.8418 241.044 37.5326 241.098 37.1875 241.098C36.9141 241.098 36.6618 241.063 36.4307 240.995C36.1995 240.927 35.9912 240.818 35.8057 240.668C35.6234 240.515 35.4671 240.316 35.3369 240.072C35.2067 239.828 35.1074 239.532 35.0391 239.184C34.9707 238.835 34.9365 238.428 34.9365 237.963V236.879C34.9365 236.296 34.9886 235.808 35.0928 235.414C35.2002 235.02 35.3516 234.704 35.5469 234.467C35.7422 234.226 35.9766 234.053 36.25 233.949C36.5267 233.845 36.8359 233.793 37.1777 233.793C37.4544 233.793 37.7083 233.827 37.9395 233.896C38.1738 233.961 38.3822 234.066 38.5645 234.213C38.7467 234.356 38.9014 234.548 39.0283 234.789C39.1585 235.027 39.2578 235.318 39.3262 235.663C39.3945 236.008 39.4287 236.413 39.4287 236.879ZM38.5205 238.109V236.728C38.5205 236.409 38.501 236.129 38.4619 235.888C38.4261 235.644 38.3724 235.435 38.3008 235.263C38.2292 235.09 38.138 234.95 38.0273 234.843C37.9199 234.735 37.7946 234.657 37.6514 234.608C37.5114 234.556 37.3535 234.53 37.1777 234.53C36.9629 234.53 36.7725 234.571 36.6064 234.652C36.4404 234.73 36.3005 234.856 36.1865 235.028C36.0758 235.201 35.9912 235.427 35.9326 235.707C35.874 235.987 35.8447 236.327 35.8447 236.728V238.109C35.8447 238.428 35.8626 238.71 35.8984 238.954C35.9375 239.198 35.9945 239.41 36.0693 239.589C36.1442 239.765 36.2354 239.91 36.3428 240.023C36.4502 240.137 36.5739 240.222 36.7139 240.277C36.8571 240.329 37.015 240.355 37.1875 240.355C37.4089 240.355 37.6025 240.313 37.7686 240.229C37.9346 240.144 38.0729 240.012 38.1836 239.833C38.2975 239.651 38.3822 239.418 38.4375 239.135C38.4928 238.848 38.5205 238.507 38.5205 238.109Z" fill="#A3A3A3"/>
<path d="M27.1826 164.881H27.2607V165.647H27.1826C26.7041 165.647 26.3037 165.726 25.9814 165.882C25.6592 166.035 25.4036 166.242 25.2148 166.502C25.026 166.759 24.8893 167.049 24.8047 167.371C24.7233 167.693 24.6826 168.021 24.6826 168.353V169.397C24.6826 169.713 24.7201 169.993 24.7949 170.237C24.8698 170.478 24.9723 170.682 25.1025 170.848C25.2327 171.014 25.3792 171.139 25.542 171.224C25.708 171.308 25.8805 171.351 26.0596 171.351C26.2679 171.351 26.4535 171.312 26.6162 171.233C26.779 171.152 26.9157 171.04 27.0264 170.896C27.1403 170.75 27.2266 170.577 27.2852 170.379C27.3438 170.18 27.373 169.962 27.373 169.725C27.373 169.513 27.347 169.31 27.2949 169.114C27.2428 168.916 27.1631 168.74 27.0557 168.587C26.9482 168.431 26.8132 168.309 26.6504 168.221C26.4909 168.13 26.3005 168.084 26.0791 168.084C25.8285 168.084 25.5941 168.146 25.376 168.27C25.1611 168.39 24.9837 168.549 24.8438 168.748C24.707 168.943 24.6289 169.157 24.6094 169.388L24.1309 169.383C24.1764 169.018 24.2611 168.707 24.3848 168.45C24.5117 168.19 24.668 167.978 24.8535 167.815C25.0423 167.649 25.2523 167.529 25.4834 167.454C25.7178 167.376 25.9652 167.337 26.2256 167.337C26.5804 167.337 26.8864 167.404 27.1436 167.537C27.4007 167.671 27.6123 167.85 27.7783 168.074C27.9443 168.296 28.0664 168.546 28.1445 168.826C28.2259 169.103 28.2666 169.388 28.2666 169.681C28.2666 170.016 28.2194 170.33 28.125 170.623C28.0306 170.916 27.889 171.173 27.7002 171.395C27.5146 171.616 27.2852 171.788 27.0117 171.912C26.7383 172.036 26.4209 172.098 26.0596 172.098C25.6755 172.098 25.3402 172.02 25.0537 171.863C24.7673 171.704 24.5296 171.492 24.3408 171.229C24.152 170.965 24.0104 170.672 23.916 170.35C23.8216 170.027 23.7744 169.7 23.7744 169.368V168.943C23.7744 168.442 23.8249 167.951 23.9258 167.469C24.0267 166.987 24.2008 166.551 24.4482 166.16C24.6989 165.77 25.0456 165.459 25.4883 165.228C25.931 164.996 26.4958 164.881 27.1826 164.881ZM33.8037 167.879V168.963C33.8037 169.546 33.7516 170.037 33.6475 170.438C33.5433 170.838 33.3936 171.16 33.1982 171.404C33.0029 171.648 32.7669 171.826 32.4902 171.937C32.2168 172.044 31.9076 172.098 31.5625 172.098C31.2891 172.098 31.0368 172.063 30.8057 171.995C30.5745 171.927 30.3662 171.818 30.1807 171.668C29.9984 171.515 29.8421 171.316 29.7119 171.072C29.5817 170.828 29.4824 170.532 29.4141 170.184C29.3457 169.835 29.3115 169.428 29.3115 168.963V167.879C29.3115 167.296 29.3636 166.808 29.4678 166.414C29.5752 166.02 29.7266 165.704 29.9219 165.467C30.1172 165.226 30.3516 165.053 30.625 164.949C30.9017 164.845 31.2109 164.793 31.5527 164.793C31.8294 164.793 32.0833 164.827 32.3145 164.896C32.5488 164.961 32.7572 165.066 32.9395 165.213C33.1217 165.356 33.2764 165.548 33.4033 165.789C33.5335 166.027 33.6328 166.318 33.7012 166.663C33.7695 167.008 33.8037 167.413 33.8037 167.879ZM32.8955 169.109V167.728C32.8955 167.409 32.876 167.129 32.8369 166.888C32.8011 166.644 32.7474 166.435 32.6758 166.263C32.6042 166.09 32.513 165.95 32.4023 165.843C32.2949 165.735 32.1696 165.657 32.0264 165.608C31.8864 165.556 31.7285 165.53 31.5527 165.53C31.3379 165.53 31.1475 165.571 30.9814 165.652C30.8154 165.73 30.6755 165.856 30.5615 166.028C30.4508 166.201 30.3662 166.427 30.3076 166.707C30.249 166.987 30.2197 167.327 30.2197 167.728V169.109C30.2197 169.428 30.2376 169.71 30.2734 169.954C30.3125 170.198 30.3695 170.41 30.4443 170.589C30.5192 170.765 30.6104 170.91 30.7178 171.023C30.8252 171.137 30.9489 171.222 31.0889 171.277C31.2321 171.329 31.39 171.355 31.5625 171.355C31.7839 171.355 31.9775 171.313 32.1436 171.229C32.3096 171.144 32.4479 171.012 32.5586 170.833C32.6725 170.651 32.7572 170.418 32.8125 170.135C32.8678 169.848 32.8955 169.507 32.8955 169.109ZM39.4287 167.879V168.963C39.4287 169.546 39.3766 170.037 39.2725 170.438C39.1683 170.838 39.0186 171.16 38.8232 171.404C38.6279 171.648 38.3919 171.826 38.1152 171.937C37.8418 172.044 37.5326 172.098 37.1875 172.098C36.9141 172.098 36.6618 172.063 36.4307 171.995C36.1995 171.927 35.9912 171.818 35.8057 171.668C35.6234 171.515 35.4671 171.316 35.3369 171.072C35.2067 170.828 35.1074 170.532 35.0391 170.184C34.9707 169.835 34.9365 169.428 34.9365 168.963V167.879C34.9365 167.296 34.9886 166.808 35.0928 166.414C35.2002 166.02 35.3516 165.704 35.5469 165.467C35.7422 165.226 35.9766 165.053 36.25 164.949C36.5267 164.845 36.8359 164.793 37.1777 164.793C37.4544 164.793 37.7083 164.827 37.9395 164.896C38.1738 164.961 38.3822 165.066 38.5645 165.213C38.7467 165.356 38.9014 165.548 39.0283 165.789C39.1585 166.027 39.2578 166.318 39.3262 166.663C39.3945 167.008 39.4287 167.413 39.4287 167.879ZM38.5205 169.109V167.728C38.5205 167.409 38.501 167.129 38.4619 166.888C38.4261 166.644 38.3724 166.435 38.3008 166.263C38.2292 166.09 38.138 165.95 38.0273 165.843C37.9199 165.735 37.7946 165.657 37.6514 165.608C37.5114 165.556 37.3535 165.53 37.1777 165.53C36.9629 165.53 36.7725 165.571 36.6064 165.652C36.4404 165.73 36.3005 165.856 36.1865 166.028C36.0758 166.201 35.9912 166.427 35.9326 166.707C35.874 166.987 35.8447 167.327 35.8447 167.728V169.109C35.8447 169.428 35.8626 169.71 35.8984 169.954C35.9375 170.198 35.9945 170.41 36.0693 170.589C36.1442 170.765 36.2354 170.91 36.3428 171.023C36.4502 171.137 36.5739 171.222 36.7139 171.277C36.8571 171.329 37.015 171.355 37.1875 171.355C37.4089 171.355 37.6025 171.313 37.7686 171.229C37.9346 171.144 38.0729 171.012 38.1836 170.833C38.2975 170.651 38.3822 170.418 38.4375 170.135C38.4928 169.848 38.5205 169.507 38.5205 169.109Z" fill="#A3A3A3"/>
<path d="M28.1982 101.076C28.1982 101.509 28.0973 101.877 27.8955 102.18C27.6969 102.479 27.4268 102.707 27.085 102.863C26.7464 103.02 26.3639 103.098 25.9375 103.098C25.5111 103.098 25.127 103.02 24.7852 102.863C24.4434 102.707 24.1732 102.479 23.9746 102.18C23.776 101.877 23.6768 101.509 23.6768 101.076C23.6768 100.793 23.7305 100.534 23.8379 100.3C23.9486 100.062 24.1032 99.8555 24.3018 99.6797C24.5036 99.5039 24.7412 99.3688 25.0146 99.2744C25.2913 99.1768 25.5957 99.1279 25.9277 99.1279C26.3639 99.1279 26.7529 99.2126 27.0947 99.3818C27.4365 99.5479 27.7051 99.7773 27.9004 100.07C28.099 100.363 28.1982 100.699 28.1982 101.076ZM27.29 101.057C27.29 100.793 27.2331 100.56 27.1191 100.358C27.0052 100.153 26.8457 99.9938 26.6406 99.8799C26.4355 99.766 26.1979 99.709 25.9277 99.709C25.651 99.709 25.4118 99.766 25.21 99.8799C25.0114 99.9938 24.8568 100.153 24.7461 100.358C24.6354 100.56 24.5801 100.793 24.5801 101.057C24.5801 101.33 24.6338 101.564 24.7412 101.76C24.8519 101.952 25.0081 102.1 25.21 102.204C25.415 102.305 25.6576 102.355 25.9375 102.355C26.2174 102.355 26.4583 102.305 26.6602 102.204C26.862 102.1 27.0166 101.952 27.124 101.76C27.2347 101.564 27.29 101.33 27.29 101.057ZM28.0322 97.7412C28.0322 98.0863 27.9411 98.3971 27.7588 98.6738C27.5765 98.9505 27.3275 99.1686 27.0117 99.3281C26.696 99.4876 26.3379 99.5674 25.9375 99.5674C25.5306 99.5674 25.1676 99.4876 24.8486 99.3281C24.5329 99.1686 24.2855 98.9505 24.1064 98.6738C23.9274 98.3971 23.8379 98.0863 23.8379 97.7412C23.8379 97.3278 23.9274 96.9762 24.1064 96.6865C24.2887 96.3968 24.5378 96.1755 24.8535 96.0225C25.1693 95.8695 25.529 95.793 25.9326 95.793C26.3395 95.793 26.7008 95.8695 27.0166 96.0225C27.3324 96.1755 27.5798 96.3968 27.7588 96.6865C27.9411 96.9762 28.0322 97.3278 28.0322 97.7412ZM27.1289 97.7559C27.1289 97.5182 27.0785 97.3083 26.9775 97.126C26.8766 96.9437 26.7367 96.8005 26.5576 96.6963C26.3786 96.5889 26.1702 96.5352 25.9326 96.5352C25.695 96.5352 25.4867 96.5856 25.3076 96.6865C25.1318 96.7842 24.9935 96.9242 24.8926 97.1064C24.7949 97.2887 24.7461 97.5052 24.7461 97.7559C24.7461 98 24.7949 98.2132 24.8926 98.3955C24.9935 98.5778 25.1335 98.7194 25.3125 98.8203C25.4915 98.9212 25.6999 98.9717 25.9375 98.9717C26.1751 98.9717 26.3818 98.9212 26.5576 98.8203C26.7367 98.7194 26.8766 98.5778 26.9775 98.3955C27.0785 98.2132 27.1289 98 27.1289 97.7559ZM33.8037 98.8789V99.9629C33.8037 100.546 33.7516 101.037 33.6475 101.438C33.5433 101.838 33.3936 102.16 33.1982 102.404C33.0029 102.648 32.7669 102.826 32.4902 102.937C32.2168 103.044 31.9076 103.098 31.5625 103.098C31.2891 103.098 31.0368 103.063 30.8057 102.995C30.5745 102.927 30.3662 102.818 30.1807 102.668C29.9984 102.515 29.8421 102.316 29.7119 102.072C29.5817 101.828 29.4824 101.532 29.4141 101.184C29.3457 100.835 29.3115 100.428 29.3115 99.9629V98.8789C29.3115 98.2962 29.3636 97.8079 29.4678 97.4141C29.5752 97.0202 29.7266 96.7044 29.9219 96.4668C30.1172 96.2259 30.3516 96.0534 30.625 95.9492C30.9017 95.8451 31.2109 95.793 31.5527 95.793C31.8294 95.793 32.0833 95.8271 32.3145 95.8955C32.5488 95.9606 32.7572 96.0664 32.9395 96.2129C33.1217 96.3561 33.2764 96.5482 33.4033 96.7891C33.5335 97.0267 33.6328 97.318 33.7012 97.6631C33.7695 98.0081 33.8037 98.4134 33.8037 98.8789ZM32.8955 100.109V98.7275C32.8955 98.4085 32.876 98.1286 32.8369 97.8877C32.8011 97.6436 32.7474 97.4352 32.6758 97.2627C32.6042 97.0902 32.513 96.9502 32.4023 96.8428C32.2949 96.7354 32.1696 96.6572 32.0264 96.6084C31.8864 96.5563 31.7285 96.5303 31.5527 96.5303C31.3379 96.5303 31.1475 96.571 30.9814 96.6523C30.8154 96.7305 30.6755 96.8558 30.5615 97.0283C30.4508 97.2008 30.3662 97.4271 30.3076 97.707C30.249 97.987 30.2197 98.3271 30.2197 98.7275V100.109C30.2197 100.428 30.2376 100.71 30.2734 100.954C30.3125 101.198 30.3695 101.41 30.4443 101.589C30.5192 101.765 30.6104 101.91 30.7178 102.023C30.8252 102.137 30.9489 102.222 31.0889 102.277C31.2321 102.329 31.39 102.355 31.5625 102.355C31.7839 102.355 31.9775 102.313 32.1436 102.229C32.3096 102.144 32.4479 102.012 32.5586 101.833C32.6725 101.651 32.7572 101.418 32.8125 101.135C32.8678 100.848 32.8955 100.507 32.8955 100.109ZM39.4287 98.8789V99.9629C39.4287 100.546 39.3766 101.037 39.2725 101.438C39.1683 101.838 39.0186 102.16 38.8232 102.404C38.6279 102.648 38.3919 102.826 38.1152 102.937C37.8418 103.044 37.5326 103.098 37.1875 103.098C36.9141 103.098 36.6618 103.063 36.4307 102.995C36.1995 102.927 35.9912 102.818 35.8057 102.668C35.6234 102.515 35.4671 102.316 35.3369 102.072C35.2067 101.828 35.1074 101.532 35.0391 101.184C34.9707 100.835 34.9365 100.428 34.9365 99.9629V98.8789C34.9365 98.2962 34.9886 97.8079 35.0928 97.4141C35.2002 97.0202 35.3516 96.7044 35.5469 96.4668C35.7422 96.2259 35.9766 96.0534 36.25 95.9492C36.5267 95.8451 36.8359 95.793 37.1777 95.793C37.4544 95.793 37.7083 95.8271 37.9395 95.8955C38.1738 95.9606 38.3822 96.0664 38.5645 96.2129C38.7467 96.3561 38.9014 96.5482 39.0283 96.7891C39.1585 97.0267 39.2578 97.318 39.3262 97.6631C39.3945 98.0081 39.4287 98.4134 39.4287 98.8789ZM38.5205 100.109V98.7275C38.5205 98.4085 38.501 98.1286 38.4619 97.8877C38.4261 97.6436 38.3724 97.4352 38.3008 97.2627C38.2292 97.0902 38.138 96.9502 38.0273 96.8428C37.9199 96.7354 37.7946 96.6572 37.6514 96.6084C37.5114 96.5563 37.3535 96.5303 37.1777 96.5303C36.9629 96.5303 36.7725 96.571 36.6064 96.6523C36.4404 96.7305 36.3005 96.8558 36.1865 97.0283C36.0758 97.2008 35.9912 97.4271 35.9326 97.707C35.874 97.987 35.8447 98.3271 35.8447 98.7275V100.109C35.8447 100.428 35.8626 100.71 35.8984 100.954C35.9375 101.198 35.9945 101.41 36.0693 101.589C36.1442 101.765 36.2354 101.91 36.3428 102.023C36.4502 102.137 36.5739 102.222 36.7139 102.277C36.8571 102.329 37.015 102.355 37.1875 102.355C37.4089 102.355 37.6025 102.313 37.7686 102.229C37.9346 102.144 38.0729 102.012 38.1836 101.833C38.2975 101.651 38.3822 101.418 38.4375 101.135C38.4928 100.848 38.5205 100.507 38.5205 100.109Z" fill="#A3A3A3"/>
<path d="M21.0596 25.8516V33H20.1562V26.9795L18.335 27.6436V26.8281L20.918 25.8516H21.0596ZM28.1787 28.8789V29.9629C28.1787 30.5456 28.1266 31.0371 28.0225 31.4375C27.9183 31.8379 27.7686 32.1602 27.5732 32.4043C27.3779 32.6484 27.1419 32.8258 26.8652 32.9365C26.5918 33.0439 26.2826 33.0977 25.9375 33.0977C25.6641 33.0977 25.4118 33.0635 25.1807 32.9951C24.9495 32.9268 24.7412 32.8177 24.5557 32.668C24.3734 32.515 24.2171 32.3164 24.0869 32.0723C23.9567 31.8281 23.8574 31.5319 23.7891 31.1836C23.7207 30.8353 23.6865 30.4284 23.6865 29.9629V28.8789C23.6865 28.2962 23.7386 27.8079 23.8428 27.4141C23.9502 27.0202 24.1016 26.7044 24.2969 26.4668C24.4922 26.2259 24.7266 26.0534 25 25.9492C25.2767 25.8451 25.5859 25.793 25.9277 25.793C26.2044 25.793 26.4583 25.8271 26.6895 25.8955C26.9238 25.9606 27.1322 26.0664 27.3145 26.2129C27.4967 26.3561 27.6514 26.5482 27.7783 26.7891C27.9085 27.0267 28.0078 27.318 28.0762 27.6631C28.1445 28.0081 28.1787 28.4134 28.1787 28.8789ZM27.2705 30.1094V28.7275C27.2705 28.4085 27.251 28.1286 27.2119 27.8877C27.1761 27.6436 27.1224 27.4352 27.0508 27.2627C26.9792 27.0902 26.888 26.9502 26.7773 26.8428C26.6699 26.7354 26.5446 26.6572 26.4014 26.6084C26.2614 26.5563 26.1035 26.5303 25.9277 26.5303C25.7129 26.5303 25.5225 26.571 25.3564 26.6523C25.1904 26.7305 25.0505 26.8558 24.9365 27.0283C24.8258 27.2008 24.7412 27.4271 24.6826 27.707C24.624 27.987 24.5947 28.3271 24.5947 28.7275V30.1094C24.5947 30.4284 24.6126 30.71 24.6484 30.9541C24.6875 31.1982 24.7445 31.4098 24.8193 31.5889C24.8942 31.7646 24.9854 31.9095 25.0928 32.0234C25.2002 32.1374 25.3239 32.222 25.4639 32.2773C25.6071 32.3294 25.765 32.3555 25.9375 32.3555C26.1589 32.3555 26.3525 32.3132 26.5186 32.2285C26.6846 32.1439 26.8229 32.012 26.9336 31.833C27.0475 31.6507 27.1322 31.418 27.1875 31.1348C27.2428 30.8483 27.2705 30.5065 27.2705 30.1094ZM33.8037 28.8789V29.9629C33.8037 30.5456 33.7516 31.0371 33.6475 31.4375C33.5433 31.8379 33.3936 32.1602 33.1982 32.4043C33.0029 32.6484 32.7669 32.8258 32.4902 32.9365C32.2168 33.0439 31.9076 33.0977 31.5625 33.0977C31.2891 33.0977 31.0368 33.0635 30.8057 32.9951C30.5745 32.9268 30.3662 32.8177 30.1807 32.668C29.9984 32.515 29.8421 32.3164 29.7119 32.0723C29.5817 31.8281 29.4824 31.5319 29.4141 31.1836C29.3457 30.8353 29.3115 30.4284 29.3115 29.9629V28.8789C29.3115 28.2962 29.3636 27.8079 29.4678 27.4141C29.5752 27.0202 29.7266 26.7044 29.9219 26.4668C30.1172 26.2259 30.3516 26.0534 30.625 25.9492C30.9017 25.8451 31.2109 25.793 31.5527 25.793C31.8294 25.793 32.0833 25.8271 32.3145 25.8955C32.5488 25.9606 32.7572 26.0664 32.9395 26.2129C33.1217 26.3561 33.2764 26.5482 33.4033 26.7891C33.5335 27.0267 33.6328 27.318 33.7012 27.6631C33.7695 28.0081 33.8037 28.4134 33.8037 28.8789ZM32.8955 30.1094V28.7275C32.8955 28.4085 32.876 28.1286 32.8369 27.8877C32.8011 27.6436 32.7474 27.4352 32.6758 27.2627C32.6042 27.0902 32.513 26.9502 32.4023 26.8428C32.2949 26.7354 32.1696 26.6572 32.0264 26.6084C31.8864 26.5563 31.7285 26.5303 31.5527 26.5303C31.3379 26.5303 31.1475 26.571 30.9814 26.6523C30.8154 26.7305 30.6755 26.8558 30.5615 27.0283C30.4508 27.2008 30.3662 27.4271 30.3076 27.707C30.249 27.987 30.2197 28.3271 30.2197 28.7275V30.1094C30.2197 30.4284 30.2376 30.71 30.2734 30.9541C30.3125 31.1982 30.3695 31.4098 30.4443 31.5889C30.5192 31.7646 30.6104 31.9095 30.7178 32.0234C30.8252 32.1374 30.9489 32.222 31.0889 32.2773C31.2321 32.3294 31.39 32.3555 31.5625 32.3555C31.7839 32.3555 31.9775 32.3132 32.1436 32.2285C32.3096 32.1439 32.4479 32.012 32.5586 31.833C32.6725 31.6507 32.7572 31.418 32.8125 31.1348C32.8678 30.8483 32.8955 30.5065 32.8955 30.1094ZM39.4287 28.8789V29.9629C39.4287 30.5456 39.3766 31.0371 39.2725 31.4375C39.1683 31.8379 39.0186 32.1602 38.8232 32.4043C38.6279 32.6484 38.3919 32.8258 38.1152 32.9365C37.8418 33.0439 37.5326 33.0977 37.1875 33.0977C36.9141 33.0977 36.6618 33.0635 36.4307 32.9951C36.1995 32.9268 35.9912 32.8177 35.8057 32.668C35.6234 32.515 35.4671 32.3164 35.3369 32.0723C35.2067 31.8281 35.1074 31.5319 35.0391 31.1836C34.9707 30.8353 34.9365 30.4284 34.9365 29.9629V28.8789C34.9365 28.2962 34.9886 27.8079 35.0928 27.4141C35.2002 27.0202 35.3516 26.7044 35.5469 26.4668C35.7422 26.2259 35.9766 26.0534 36.25 25.9492C36.5267 25.8451 36.8359 25.793 37.1777 25.793C37.4544 25.793 37.7083 25.8271 37.9395 25.8955C38.1738 25.9606 38.3822 26.0664 38.5645 26.2129C38.7467 26.3561 38.9014 26.5482 39.0283 26.7891C39.1585 27.0267 39.2578 27.318 39.3262 27.6631C39.3945 28.0081 39.4287 28.4134 39.4287 28.8789ZM38.5205 30.1094V28.7275C38.5205 28.4085 38.501 28.1286 38.4619 27.8877C38.4261 27.6436 38.3724 27.4352 38.3008 27.2627C38.2292 27.0902 38.138 26.9502 38.0273 26.8428C37.9199 26.7354 37.7946 26.6572 37.6514 26.6084C37.5114 26.5563 37.3535 26.5303 37.1777 26.5303C36.9629 26.5303 36.7725 26.571 36.6064 26.6523C36.4404 26.7305 36.3005 26.8558 36.1865 27.0283C36.0758 27.2008 35.9912 27.4271 35.9326 27.707C35.874 27.987 35.8447 28.3271 35.8447 28.7275V30.1094C35.8447 30.4284 35.8626 30.71 35.8984 30.9541C35.9375 31.1982 35.9945 31.4098 36.0693 31.5889C36.1442 31.7646 36.2354 31.9095 36.3428 32.0234C36.4502 32.1374 36.5739 32.222 36.7139 32.2773C36.8571 32.3294 37.015 32.3555 37.1875 32.3555C37.4089 32.3555 37.6025 32.3132 37.7686 32.2285C37.9346 32.1439 38.0729 32.012 38.1836 31.833C38.2975 31.6507 38.3822 31.418 38.4375 31.1348C38.4928 30.8483 38.5205 30.5065 38.5205 30.1094Z" fill="#A3A3A3"/>
<path d="M50 272.375C50 272.375 106.6 272.375 144.333 250.908C182.067 229.44 200.933 139.415 238.667 139.415C276.4 139.415 295.267 139.415 333 140.108C370.733 140.8 389.6 154.442 427.333 162.268C465.067 170.093 483.933 162.268 521.667 179.234C559.4 196.2 616 272.375 616 272.375" stroke="#01FFFF" stroke-width="2"/>
<path d="M50 272.375C50 272.375 106.6 177.849 144.333 177.849C182.067 177.849 200.933 287.61 238.667 287.61C276.4 287.61 295.267 260.049 333 216.975C370.733 173.902 389.6 72.2425 427.333 72.2425C465.067 72.2425 483.933 259.91 521.667 266.142C559.4 272.375 616 272.375 616 272.375" stroke="#5E85F8" stroke-width="2"/>
<path d="M50 276C48.9393 276 47.922 275.579 47.1719 274.829C46.4218 274.079 46.0003 273.062 46 272.001C45.9997 270.94 46.4208 269.923 47.1705 269.173C47.9203 268.422 48.9373 268.001 49.998 268C51.0587 267.999 52.0762 268.42 52.8267 269.17C53.5772 269.919 53.9992 270.936 54 271.997C54.0008 273.058 53.5803 274.075 52.8309 274.826C52.0815 275.577 51.0647 275.999 50.004 276H50Z" fill="#01FFFF"/>
<path d="M144 255C142.939 255 141.922 254.579 141.172 253.829C140.422 253.079 140 252.062 140 251.001C140 249.94 140.421 248.923 141.171 248.173C141.92 247.422 142.937 247.001 143.998 247C145.059 246.999 146.076 247.42 146.827 248.17C147.577 248.919 147.999 249.936 148 250.997C148.001 252.058 147.58 253.075 146.831 253.826C146.082 254.577 145.065 254.999 144.004 255H144Z" fill="#01FFFF"/>
<path d="M238 143C236.939 143 235.922 142.579 235.172 141.829C234.422 141.079 234 140.062 234 139.001C234 137.94 234.421 136.923 235.171 136.173C235.92 135.422 236.937 135.001 237.998 135C239.059 134.999 240.076 135.42 240.827 136.17C241.577 136.919 241.999 137.936 242 138.997C242.001 140.058 241.58 141.075 240.831 141.826C240.082 142.577 239.065 142.999 238.004 143H238Z" fill="#01FFFF"/>
<path d="M333 144C331.939 144 330.922 143.579 330.172 142.829C329.422 142.079 329 141.062 329 140.001C329 138.94 329.421 137.923 330.171 137.173C330.92 136.422 331.937 136.001 332.998 136C334.059 135.999 335.076 136.42 335.827 137.17C336.577 137.919 336.999 138.936 337 139.997C337.001 141.058 336.58 142.075 335.831 142.826C335.082 143.577 334.065 143.999 333.004 144H333Z" fill="#01FFFF"/>
<path d="M427 166C425.939 166 424.922 165.579 424.172 164.829C423.422 164.079 423 163.062 423 162.001C423 160.94 423.421 159.923 424.171 159.173C424.92 158.422 425.937 158.001 426.998 158C428.059 157.999 429.076 158.42 429.827 159.17C430.577 159.919 430.999 160.936 431 161.997C431.001 163.058 430.58 164.075 429.831 164.826C429.082 165.577 428.065 165.999 427.004 166H427Z" fill="#01FFFF"/>
<path d="M521 183C519.939 183 518.922 182.579 518.172 181.829C517.422 181.079 517 180.062 517 179.001C517 177.94 517.421 176.923 518.171 176.173C518.92 175.422 519.937 175.001 520.998 175C522.059 174.999 523.076 175.42 523.827 176.17C524.577 176.919 524.999 177.936 525 178.997C525.001 180.058 524.58 181.075 523.831 181.826C523.082 182.577 522.065 182.999 521.004 183H521Z" fill="#01FFFF"/>
<path d="M616 276C614.939 276 613.922 275.579 613.172 274.829C612.422 274.079 612 273.062 612 272.001C612 270.94 612.421 269.923 613.171 269.173C613.92 268.422 614.937 268.001 615.998 268C617.059 267.999 618.076 268.42 618.827 269.17C619.577 269.919 619.999 270.936 620 271.997C620.001 273.058 619.58 274.075 618.831 274.826C618.082 275.577 617.065 275.999 616.004 276H616Z" fill="#01FFFF"/>
<path d="M50 276C48.9393 276 47.922 275.579 47.1719 274.829C46.4218 274.079 46.0003 273.062 46 272.001C45.9997 270.94 46.4208 269.923 47.1705 269.173C47.9203 268.422 48.9373 268.001 49.998 268C51.0587 267.999 52.0762 268.42 52.8267 269.17C53.5772 269.919 53.9992 270.936 54 271.997C54.0008 273.058 53.5803 274.075 52.8309 274.826C52.0815 275.577 51.0647 275.999 50.004 276H50Z" fill="#5E85F8"/>
<path d="M144 182C142.939 182 141.922 181.579 141.172 180.829C140.422 180.079 140 179.062 140 178.001C140 176.94 140.421 175.923 141.171 175.173C141.92 174.422 142.937 174.001 143.998 174C145.059 173.999 146.076 174.42 146.827 175.17C147.577 175.919 147.999 176.936 148 177.997C148.001 179.058 147.58 180.075 146.831 180.826C146.082 181.577 145.065 181.999 144.004 182H144Z" fill="#5E85F8"/>
<path d="M238 292C236.939 292 235.922 291.579 235.172 290.829C234.422 290.079 234 289.062 234 288.001C234 286.94 234.421 285.923 235.171 285.173C235.92 284.422 236.937 284.001 237.998 284C239.059 283.999 240.076 284.42 240.827 285.17C241.577 285.919 241.999 286.936 242 287.997C242.001 289.058 241.58 290.075 240.831 290.826C240.082 291.577 239.065 291.999 238.004 292H238Z" fill="#5E85F8"/>
<path d="M333 221C331.939 221 330.922 220.579 330.172 219.829C329.422 219.079 329 218.062 329 217.001C329 215.94 329.421 214.923 330.171 214.173C330.92 213.422 331.937 213.001 332.998 213C334.059 212.999 335.076 213.42 335.827 214.17C336.577 214.919 336.999 215.936 337 216.997C337.001 218.058 336.58 219.075 335.831 219.826C335.082 220.577 334.065 220.999 333.004 221H333Z" fill="#5E85F8"/>
<path d="M427 76C425.939 76 424.922 75.5787 424.172 74.8288C423.422 74.0789 423 73.0617 423 72.001C423 70.9403 423.421 69.9229 424.171 69.1726C424.92 68.4223 425.937 68.0005 426.998 68C428.059 67.9995 429.076 68.4203 429.827 69.1698C430.577 69.9194 430.999 70.9363 431 71.997C431.001 73.0577 430.58 74.0753 429.831 74.826C429.082 75.5766 428.065 75.9989 427.004 76L427 76Z" fill="#5E85F8"/>
<path d="M521 270C519.939 270 518.922 269.579 518.172 268.829C517.422 268.079 517 267.062 517 266.001C517 264.94 517.421 263.923 518.171 263.173C518.92 262.422 519.937 262.001 520.998 262C522.059 261.999 523.076 262.42 523.827 263.17C524.577 263.919 524.999 264.936 525 265.997C525.001 267.058 524.58 268.075 523.831 268.826C523.082 269.577 522.065 269.999 521.004 270H521Z" fill="#5E85F8"/>
<path d="M616 276C614.939 276 613.922 275.579 613.172 274.829C612.422 274.079 612 273.062 612 272.001C612 270.94 612.421 269.923 613.171 269.173C613.92 268.422 614.937 268.001 615.998 268C617.059 267.999 618.076 268.42 618.827 269.17C619.577 269.919 619.999 270.936 620 271.997C620.001 273.058 619.58 274.075 618.831 274.826C618.082 275.577 617.065 275.999 616.004 276H616Z" fill="#5E85F8"/>
</svg>
