<svg viewBox="0 0 306 215" fill="none" xmlns="http://www.w3.org/2000/svg">
<rect x="13" width="286" height="194" rx="10" fill="#5E85F8"/>
<path d="M14.8034 173.895C14.8034 173.895 43.1411 167.714 62.0329 163.593C80.9247 159.472 90.3706 158.098 109.262 153.29C128.154 148.482 137.6 145.735 156.492 139.553C175.384 133.371 184.83 128.563 203.721 122.382C222.613 116.2 232.059 112.766 250.951 108.645C269.843 104.524 298.18 101.776 298.18 101.776" stroke="white" stroke-width="2"/>
<path d="M14.8034 176.454C14.0557 176.454 13.3386 176.17 12.8098 175.665C12.281 175.16 11.9839 174.476 11.9837 173.761C11.9835 173.047 12.2803 172.362 12.8088 171.857C13.3373 171.351 14.0543 171.067 14.802 171.067C15.5497 171.067 16.2669 171.35 16.7959 171.855C17.325 172.36 17.6225 173.044 17.623 173.759C17.6236 174.473 17.3272 175.158 16.7989 175.664C16.2707 176.169 15.5539 176.453 14.8062 176.454H14.8034Z" fill="white"/>
<path d="M62.0327 166.353C61.285 166.353 60.5679 166.07 60.0391 165.565C59.5104 165.06 59.2132 164.375 59.213 163.661C59.2128 162.946 59.5096 162.261 60.0381 161.756C60.5666 161.251 61.2836 160.967 62.0313 160.966C62.779 160.966 63.4962 161.249 64.0252 161.754C64.5543 162.259 64.8518 162.944 64.8524 163.658C64.8529 164.372 64.5565 165.057 64.0282 165.563C63.5 166.068 62.7832 166.353 62.0355 166.353H62.0327Z" fill="white"/>
<path d="M109.262 156.253C108.515 156.253 107.798 155.969 107.269 155.464C106.74 154.959 106.443 154.274 106.443 153.56C106.442 152.846 106.739 152.161 107.268 151.655C107.796 151.15 108.513 150.866 109.261 150.866C110.009 150.865 110.726 151.149 111.255 151.653C111.784 152.158 112.081 152.843 112.082 153.557C112.083 154.272 111.786 154.957 111.258 155.462C110.73 155.968 110.013 156.252 109.265 156.253H109.262Z" fill="white"/>
<path d="M156.492 142.112C155.744 142.112 155.027 141.828 154.498 141.323C153.969 140.818 153.672 140.133 153.672 139.419C153.672 138.705 153.969 138.02 154.497 137.514C155.026 137.009 155.743 136.725 156.49 136.725C157.238 136.724 157.955 137.008 158.484 137.513C159.013 138.017 159.311 138.702 159.311 139.416C159.312 140.131 159.016 140.816 158.487 141.321C157.959 141.827 157.242 142.111 156.495 142.112H156.492Z" fill="white"/>
<path d="M203.721 125.277C202.974 125.277 202.257 124.994 201.728 124.489C201.199 123.984 200.902 123.299 200.902 122.585C200.901 121.87 201.198 121.185 201.727 120.68C202.255 120.175 202.972 119.891 203.72 119.89C204.468 119.89 205.185 120.173 205.714 120.678C206.243 121.183 206.54 121.868 206.541 122.582C206.542 123.296 206.245 123.981 205.717 124.487C205.189 124.992 204.472 125.277 203.724 125.277H203.721Z" fill="white"/>
<path d="M250.951 111.136C250.203 111.136 249.486 110.853 248.957 110.348C248.429 109.843 248.131 109.158 248.131 108.444C248.131 107.729 248.428 107.044 248.956 106.539C249.485 106.034 250.202 105.75 250.949 105.749C251.697 105.749 252.414 106.032 252.943 106.537C253.472 107.042 253.77 107.727 253.771 108.441C253.771 109.155 253.475 109.84 252.946 110.346C252.418 110.851 251.701 111.136 250.954 111.136H250.951Z" fill="white"/>
<path d="M298.5 109C296.511 109 294.604 108.21 293.197 106.804C291.791 105.398 291 103.491 291 101.502C291 99.5131 291.789 97.6055 293.195 96.1987C294.6 94.7919 296.507 94.001 298.496 94C300.485 93.999 302.393 94.788 303.8 96.1934C305.207 97.5988 305.999 99.5056 306 101.494C306.001 103.483 305.213 105.391 303.808 106.799C302.403 108.206 300.496 108.998 298.507 109L298.5 109Z" fill="white"/>
</svg>
