<svg viewBox="0 0 306 151" fill="none" xmlns="http://www.w3.org/2000/svg">
<path d="M14.8034 109.895C14.8034 109.895 43.1411 103.714 62.0329 99.5926C80.9247 95.4715 90.3706 94.0978 109.262 89.2899C128.154 84.482 137.6 81.7346 156.492 75.553C175.384 69.3714 184.83 64.5635 203.721 58.3819C222.613 52.2002 232.059 48.766 250.951 44.6449C269.843 40.5239 298.18 37.7765 298.18 37.7765" stroke="white" stroke-width="2"/>
<path d="M14.8034 112.454C14.0557 112.454 13.3386 112.17 12.8098 111.665C12.281 111.16 11.9839 110.476 11.9837 109.761C11.9835 109.047 12.2803 108.362 12.8088 107.857C13.3373 107.351 14.0543 107.067 14.802 107.067C15.5497 107.067 16.2669 107.35 16.7959 107.855C17.325 108.36 17.6225 109.044 17.623 109.759C17.6236 110.473 17.3272 111.158 16.7989 111.664C16.2707 112.169 15.5539 112.453 14.8062 112.454H14.8034Z" fill="white"/>
<path d="M62.0327 102.353C61.285 102.353 60.5679 102.07 60.0391 101.565C59.5104 101.06 59.2132 100.375 59.213 99.6606C59.2128 98.9464 59.5096 98.2613 60.0381 97.7561C60.5666 97.2508 61.2836 96.9668 62.0313 96.9664C62.779 96.9661 63.4962 97.2494 64.0252 97.7541C64.5543 98.2589 64.8518 98.9437 64.8524 99.6579C64.8529 100.372 64.5565 101.057 64.0282 101.563C63.5 102.068 62.7832 102.353 62.0355 102.353H62.0327Z" fill="white"/>
<path d="M109.262 92.2528C108.515 92.2528 107.798 91.9691 107.269 91.4641C106.74 90.9591 106.443 90.2742 106.443 89.56C106.442 88.8457 106.739 88.1606 107.268 87.6554C107.796 87.1502 108.513 86.8661 109.261 86.8658C110.009 86.8654 110.726 87.1488 111.255 87.6535C111.784 88.1582 112.081 88.843 112.082 89.5573C112.083 90.2715 111.786 90.9567 111.258 91.4622C110.73 91.9677 110.013 92.2521 109.265 92.2528H109.262Z" fill="white"/>
<path d="M156.492 78.1118C155.744 78.1118 155.027 77.8282 154.498 77.3232C153.969 76.8182 153.672 76.1333 153.672 75.419C153.672 74.7048 153.969 74.0197 154.497 73.5144C155.026 73.0092 155.743 72.7252 156.49 72.7248C157.238 72.7245 157.955 73.0078 158.484 73.5125C159.013 74.0173 159.311 74.7021 159.311 75.4163C159.312 76.1306 159.016 76.8158 158.487 77.3213C157.959 77.8268 157.242 78.1111 156.495 78.1118H156.492Z" fill="white"/>
<path d="M203.721 61.2774C202.974 61.2774 202.257 60.9937 201.728 60.4887C201.199 59.9837 200.902 59.2988 200.902 58.5846C200.901 57.8703 201.198 57.1852 201.727 56.68C202.255 56.1748 202.972 55.8907 203.72 55.8904C204.468 55.89 205.185 56.1734 205.714 56.6781C206.243 57.1828 206.54 57.8676 206.541 58.5819C206.542 59.2961 206.245 59.9813 205.717 60.4868C205.189 60.9923 204.472 61.2767 203.724 61.2774H203.721Z" fill="white"/>
<path d="M250.951 47.1364C250.203 47.1364 249.486 46.8528 248.957 46.3478C248.429 45.8428 248.131 45.1579 248.131 44.4436C248.131 43.7294 248.428 43.0443 248.956 42.539C249.485 42.0338 250.202 41.7498 250.949 41.7494C251.697 41.7491 252.414 42.0324 252.943 42.5371C253.472 43.0419 253.77 43.7267 253.771 44.4409C253.771 45.1552 253.475 45.8404 252.946 46.3459C252.418 46.8514 251.701 47.1357 250.954 47.1364H250.951Z" fill="white"/>
<path d="M298.5 45C296.511 45 294.604 44.2101 293.197 42.804C291.791 41.3978 291 39.4907 291 37.5019C291 35.5131 291.789 33.6055 293.195 32.1987C294.6 30.7919 296.507 30.001 298.496 30C300.485 29.999 302.393 30.788 303.8 32.1934C305.207 33.5988 305.999 35.5056 306 37.4944C306.001 39.4832 305.213 41.3911 303.808 42.7987C302.403 44.2062 300.496 44.998 298.507 45L298.5 45Z" fill="white"/>
</svg>

