<svg width="32" height="32" viewBox="0 0 32 32" fill="none" xmlns="http://www.w3.org/2000/svg">
<path fill-rule="evenodd" clip-rule="evenodd" d="M18.0771 7.379C16.9164 6.26519 15.0837 6.26519 13.9229 7.379L7.75436 13.2981C7.60322 13.4431 7.50156 13.632 7.46378 13.8381C6.72494 17.8672 6.6704 21.9921 7.30246 26.0393L7.45249 27H11.4211V18.7182C11.4211 18.1659 11.8688 17.7182 12.4211 17.7182H19.579C20.1313 17.7182 20.579 18.1659 20.579 18.7182V27H24.5476L24.6976 26.0393C25.3297 21.9921 25.2751 17.8672 24.5363 13.8381C24.4985 13.632 24.3969 13.4431 24.2457 13.2981L18.0771 7.379ZM12.5382 5.93591C14.4728 4.07955 17.5273 4.07955 19.4619 5.93591L25.6305 11.855C26.0845 12.2907 26.39 12.8583 26.5035 13.4773C27.2829 17.7275 27.3404 22.0786 26.6737 26.3479L26.4327 27.8912C26.333 28.5295 25.7833 29 25.1373 29H19.579C19.0267 29 18.579 28.5523 18.579 28V19.7182H13.4211V28C13.4211 28.5523 12.9734 29 12.4211 29H6.86279C6.21681 29 5.6671 28.5295 5.56743 27.8912L5.32641 26.3479C4.65968 22.0786 4.71721 17.7275 5.49658 13.4773C5.61009 12.8583 5.91554 12.2907 6.36963 11.855L12.5382 5.93591Z" fill="white"/>
</svg>
