<svg viewBox="0 0 42 42" fill="none" xmlns="http://www.w3.org/2000/svg">
<path fill-rule="evenodd" clip-rule="evenodd" d="M34.5625 21C34.5625 20.2751 33.9749 19.6875 33.25 19.6875H8.75C8.02513 19.6875 7.4375 20.2751 7.4375 21C7.4375 21.7249 8.02513 22.3125 8.75 22.3125H33.25C33.9749 22.3125 34.5625 21.7249 34.5625 21Z" fill="white"/>
<path fill-rule="evenodd" clip-rule="evenodd" d="M34.5625 12.25C34.5625 11.5251 33.9749 10.9375 33.25 10.9375H8.75C8.02513 10.9375 7.4375 11.5251 7.4375 12.25C7.4375 12.9749 8.02513 13.5625 8.75 13.5625H33.25C33.9749 13.5625 34.5625 12.9749 34.5625 12.25Z" fill="white"/>
<path fill-rule="evenodd" clip-rule="evenodd" d="M34.5625 29.75C34.5625 29.0251 33.9749 28.4375 33.25 28.4375H8.75C8.02513 28.4375 7.4375 29.0251 7.4375 29.75C7.4375 30.4749 8.02513 31.0625 8.75 31.0625H33.25C33.9749 31.0625 34.5625 30.4749 34.5625 29.75Z" fill="white"/>
</svg>
