<svg width="32" height="32" viewBox="0 0 32 32" fill="none" xmlns="http://www.w3.org/2000/svg">
<path d="M10.6667 12.6667C9.74623 12.6667 9.00004 13.4128 9.00004 14.3333C9.00004 15.2538 9.74623 16 10.6667 16C11.5872 16 12.3334 15.2538 12.3334 14.3333C12.3334 13.4128 11.5872 12.6667 10.6667 12.6667Z" fill="white"/>
<path d="M16 12.6667C15.0796 12.6667 14.3334 13.4128 14.3334 14.3333C14.3334 15.2538 15.0796 16 16 16C16.9205 16 17.6667 15.2538 17.6667 14.3333C17.6667 13.4128 16.9205 12.6667 16 12.6667Z" fill="white"/>
<path d="M19.6667 14.3333C19.6667 13.4128 20.4129 12.6667 21.3334 12.6667C22.2538 12.6667 23 13.4128 23 14.3333C23 15.2538 22.2538 16 21.3334 16C20.4129 16 19.6667 15.2538 19.6667 14.3333Z" fill="white"/>
<path fill-rule="evenodd" clip-rule="evenodd" d="M21.4677 6.12371C17.8754 5.81736 14.2644 5.79959 10.6693 6.07055L10.4117 6.08997C6.98325 6.34836 4.33337 9.20547 4.33337 12.6436V24C4.33337 24.3518 4.51826 24.6778 4.82024 24.8583C5.12222 25.0388 5.49685 25.0474 5.80676 24.8809L11.0211 22.0786C11.2637 21.9482 11.5348 21.88 11.8101 21.88H23.7787C25.2881 21.88 26.5817 20.8008 26.8523 19.3158C27.4006 16.3062 27.444 13.2262 26.9805 10.2023L26.8439 9.31122C26.5952 7.68889 25.268 6.4478 23.6327 6.30834L21.4677 6.12371ZM10.8196 8.06489C14.3081 7.80197 17.812 7.81922 21.2977 8.11648L23.4627 8.30111C24.1778 8.36209 24.7582 8.90481 24.867 9.61425L25.0035 10.5053C25.4334 13.3097 25.3932 16.1661 24.8847 18.9573C24.7873 19.4917 24.3218 19.88 23.7787 19.88H11.8101C11.2043 19.88 10.608 20.0301 10.0744 20.3169L6.33337 22.3273V12.6436C6.33337 10.2517 8.17686 8.26407 10.562 8.08431L10.8196 8.06489Z" fill="white"/>
</svg>
