<svg width="32" height="32" viewBox="0 0 32 32" fill="none" xmlns="http://www.w3.org/2000/svg">
<path fill-rule="evenodd" clip-rule="evenodd" d="M16 5C11.6782 5 8.32532 7.7067 7.7531 11H10.6667C11.219 11 11.6667 11.4477 11.6667 12V21.3333C11.6667 21.8856 11.219 22.3333 10.6667 22.3333H6.66667C4.64162 22.3333 3 20.6917 3 18.6667V14.6667C3 12.9712 4.15082 11.5444 5.71396 11.125C6.22257 6.45279 10.7651 3 16 3C21.2349 3 25.7774 6.45279 26.286 11.125C27.8492 11.5444 29 12.9712 29 14.6667V18.6667C29 20.3669 27.8427 21.7969 26.2729 22.2118C25.8452 25.2938 23.1997 27.6667 20 27.6667H18.4728C18.0772 28.6439 17.1191 29.3333 16 29.3333C14.5272 29.3333 13.3333 28.1394 13.3333 26.6667C13.3333 25.1939 14.5272 24 16 24C17.1191 24 18.0772 24.6894 18.4728 25.6667H20C22.0491 25.6667 23.766 24.2445 24.2174 22.3333H21.3333C20.781 22.3333 20.3333 21.8856 20.3333 21.3333V12C20.3333 11.4477 20.781 11 21.3333 11H24.2469C23.6747 7.7067 20.3218 5 16 5ZM6.66667 13C5.74619 13 5 13.7462 5 14.6667V18.6667C5 19.5871 5.74619 20.3333 6.66667 20.3333H9.66667V13H6.66667ZM27 14.6667C27 13.7462 26.2538 13 25.3333 13H22.3333V20.3333H25.3333C26.2538 20.3333 27 19.5871 27 18.6667V14.6667Z" fill="white"/>
</svg>
